<svg width="22" height="22" viewBox="0 0 22 22" fill="none" xmlns="http://www.w3.org/2000/svg">
<path fill-rule="evenodd" clip-rule="evenodd" d="M8 0.25C5.42603 0.25 3.42914 0.760201 2.09467 2.09467C0.760201 3.42914 0.25 5.42603 0.25 8V14C0.25 16.574 0.760201 18.5709 2.09467 19.9053C3.42914 21.2398 5.42603 21.75 8 21.75H14C16.574 21.75 18.5709 21.2398 19.9053 19.9053C21.2398 18.5709 21.75 16.574 21.75 14V8C21.75 5.42603 21.2398 3.42914 19.9053 2.09467C18.5709 0.760201 16.574 0.25 14 0.25H8ZM1.75 8C1.75 5.57397 2.2398 4.07086 3.15533 3.15533C4.07086 2.2398 5.57397 1.75 8 1.75H14C16.426 1.75 17.9291 2.2398 18.8447 3.15533C19.7602 4.07086 20.25 5.57397 20.25 8V14C20.25 16.426 19.7602 17.9291 18.8447 18.8447C17.9291 19.7602 16.426 20.25 14 20.25H8C5.57397 20.25 4.07086 19.7602 3.15533 18.8447C2.2398 17.9291 1.75 16.426 1.75 14V8ZM9.92033 7.26034C11.2465 5.93413 13.4129 5.93179 14.7513 7.26197L14.7513 7.26198C16.0742 8.57666 16.0791 10.7412 14.7488 12.0805C13.822 13.0067 12.4956 13.2929 11.3251 12.9246C11.059 12.8408 10.7684 12.9117 10.5707 13.1086L9.45594 14.2191L9.1334 13.8928C8.84222 13.5982 8.36735 13.5954 8.07275 13.8866C7.77816 14.1778 7.77539 14.6526 8.06656 14.9472L8.39322 15.2777L7.98071 15.6886L7.9744 15.695L7.9669 15.6996C7.95199 15.7083 7.92908 15.7191 7.90018 15.7285C7.87143 15.738 7.84403 15.7437 7.82187 15.7462C7.80776 15.7478 7.79959 15.7477 7.79723 15.7477L7.78913 15.7466L6.58913 15.5866L6.58914 15.5866L6.58304 15.5858C6.58307 15.5858 6.58302 15.5858 6.58289 15.5858C6.58009 15.585 6.53964 15.5749 6.48728 15.5216C6.43536 15.4688 6.41589 15.418 6.41183 15.3989L6.25343 14.2109L6.25282 14.2067C6.25295 14.204 6.25327 14.1994 6.2541 14.1929C6.25663 14.1728 6.26262 14.1448 6.27342 14.1127C6.28417 14.0807 6.29721 14.052 6.30973 14.0298C6.31697 14.0169 6.32235 14.0092 6.32483 14.0058L8.89034 11.4403C9.08678 11.2439 9.15854 10.955 9.07684 10.6894C8.71456 9.51201 8.99618 8.1845 9.92033 7.26034ZM8.85967 6.19968C10.7735 4.28589 13.8871 4.28823 15.8087 6.19805C17.7256 8.10311 17.7209 11.218 15.812 13.1387L15.8103 13.1403C14.5946 14.3561 12.8964 14.807 11.3256 14.4738L9.04539 16.7453C8.84617 16.9514 8.59118 17.0806 8.36733 17.1539C8.13926 17.2287 7.86189 17.2723 7.5865 17.2328L6.39346 17.0738C5.99433 17.0229 5.65732 16.817 5.41774 16.5734C5.17759 16.3291 4.98623 15.9978 4.92873 15.624L4.92659 15.6091L4.76738 14.415C4.7259 14.1325 4.77834 13.8527 4.8516 13.6348C4.92646 13.4121 5.05192 13.168 5.23555 12.9742L5.24968 12.9597L7.52779 10.6816C7.20284 9.11585 7.6414 7.41796 8.85967 6.19968ZM12.3945 8.7C11.8422 8.7 11.3945 9.14771 11.3945 9.7C11.3945 10.2523 11.8422 10.7 12.3945 10.7H12.4035C12.9558 10.7 13.4035 10.2523 13.4035 9.7C13.4035 9.14771 12.9558 8.7 12.4035 8.7H12.3945Z" fill="#9197B3"/>
</svg>
