<svg width="22" height="22" viewBox="0 0 22 22" fill="none" xmlns="http://www.w3.org/2000/svg">
<path fill-rule="evenodd" clip-rule="evenodd" d="M14 21.75C19.43 21.75 21.75 19.43 21.75 14V8C21.75 2.57 19.43 0.25 14 0.25H8C2.57 0.25 0.25 2.57 0.25 8V14C0.25 19.43 2.57 21.75 8 21.75H14ZM1.75 8C1.75 3.39 3.39 1.75 8 1.75H14C18.61 1.75 20.25 3.39 20.25 8V14C20.25 18.61 18.61 20.25 14 20.25H8C3.39 20.25 1.75 18.61 1.75 14V8ZM16.0103 9.2982L11.75 11.7604V16.1126C11.796 16.0937 11.8396 16.0728 11.8802 16.0498L15.0802 14.2698C15.5702 13.9998 16.0103 13.2398 16.0103 12.6898V9.2998C16.0103 9.29927 16.0103 9.29874 16.0103 9.2982ZM15.3742 7.94279L10.9906 10.4797L6.62132 7.94871C6.71634 7.85507 6.8172 7.7766 6.92026 7.7198L10.1202 5.9398C10.3502 5.8098 10.6702 5.7498 11.0002 5.7498C11.3302 5.7498 11.6502 5.8098 11.8802 5.9398L15.0802 7.7198C15.1815 7.7756 15.2806 7.85191 15.3742 7.94279ZM5.99023 9.30631V12.6898C5.99023 13.2498 6.43026 13.9998 6.92026 14.2698L10.1202 16.0498C10.1607 16.0727 10.2041 16.0936 10.25 16.1124V11.7657L5.99023 9.30631ZM9.3903 17.3698C9.8503 17.6198 10.4202 17.7498 11.0002 17.7498C11.5802 17.7498 12.1502 17.6298 12.6102 17.3698L15.8102 15.5898C16.7602 15.0498 17.5103 13.7798 17.5103 12.6898V9.2998C17.5103 8.19981 16.7702 6.9298 15.8102 6.3998L12.6102 4.6198C11.6902 4.1098 10.3103 4.1098 9.3903 4.6198L6.19025 6.3998C5.24025 6.9398 4.49023 8.20981 4.49023 9.2998V12.6898C4.49023 13.7898 5.23025 15.0598 6.19025 15.5898L9.3903 17.3698Z" fill="#9197B3"/>
</svg>
